<svg width="69" height="67" viewBox="0 0 69 67" fill="none" xmlns="http://www.w3.org/2000/svg">
<path d="M30.3635 38.3728C30.3635 43.2796 26.3858 47.2572 21.4791 47.2572C16.5723 47.2572 12.5947 43.2796 12.5947 38.3728C12.5947 35.7858 13.7004 33.4571 15.465 31.8334C17.0473 30.3775 19.1593 29.4884 21.4791 29.4884C26.3858 29.4884 30.3635 33.4661 30.3635 38.3728Z" fill="#197BBD"/>
<path d="M56.0045 38.3728C56.0045 43.2796 52.0268 47.2572 47.1201 47.2572C42.2134 47.2572 38.2357 43.2796 38.2357 38.3728C38.2357 37.7461 38.3006 37.1345 38.424 36.5444C39.267 32.5148 42.8401 29.4884 47.1201 29.4884C52.0268 29.4884 56.0045 33.4661 56.0045 38.3728Z" fill="#197BBD"/>
<path d="M46.027 27.7517C46.027 32.2233 42.7236 35.9233 38.424 36.5444C38.0056 36.6048 37.5778 36.6361 37.1426 36.6361C32.8303 36.6361 29.2355 33.5637 28.4279 29.4884C28.3166 28.9268 28.2582 28.346 28.2582 27.7517C28.2582 26.9711 28.3589 26.214 28.548 25.4927C29.5473 21.68 33.0165 18.8673 37.1426 18.8673C42.0494 18.8673 46.027 22.845 46.027 27.7517Z" fill="#197BBD"/>
<path d="M30.3635 38.3728C30.3635 43.2796 26.3858 47.2572 21.4791 47.2572H47.1201C42.2134 47.2572 38.2357 43.2796 38.2357 38.3728C38.2357 37.7461 38.3006 37.1345 38.424 36.5444C38.0056 36.6048 37.5778 36.6361 37.1426 36.6361C32.8303 36.6361 29.2355 33.5637 28.4279 29.4884H22.6326H21.4791C26.3858 29.4884 30.3635 33.4661 30.3635 38.3728Z" fill="#197BBD"/>
<path d="M28.4279 29.4884C28.3166 28.9268 28.2582 28.346 28.2582 27.7517C28.2582 26.9711 28.3589 26.214 28.548 25.4927C27.8055 26.8246 25.5831 29.4884 22.6326 29.4884H28.4279Z" fill="#197BBD"/>
<circle cx="47.2619" cy="25.0472" r="8.01481" transform="rotate(-30 47.2619 25.0472)" fill="#FFC145"/>
<path d="M50.4974 25.237C50.7834 25.7324 50.8576 26.2472 50.7199 26.7814C50.5822 27.3156 50.2862 27.791 49.8319 28.2077L50.1774 28.8061C50.274 28.9734 50.2959 29.1451 50.2433 29.3214C50.2008 29.5003 50.0959 29.6381 49.9286 29.7347C49.7677 29.8276 49.5992 29.8477 49.4229 29.795C49.2504 29.7488 49.1158 29.642 49.0192 29.4747L48.7072 28.9343C48.3412 29.1027 47.98 29.2126 47.6236 29.2639C47.2736 29.3116 46.8966 29.2976 46.4927 29.222C46.2298 29.1678 46.0445 29.0475 45.9368 28.8609C45.8513 28.7129 45.8317 28.5527 45.878 28.3801C45.9205 28.2012 46.0189 28.0671 46.1734 27.978C46.2956 27.9074 46.4273 27.8828 46.5684 27.9043C46.8607 27.95 47.1248 27.9691 47.3607 27.9616C47.5928 27.9477 47.8244 27.8955 48.0553 27.8051L46.9687 25.9231C45.538 26.4317 44.518 26.1584 43.9088 25.1032C43.6005 24.5692 43.528 24.0276 43.6915 23.4786C43.8512 22.9231 44.1951 22.4415 44.7231 22.0337L44.5393 21.7152C44.4427 21.5479 44.4175 21.378 44.4637 21.2054C44.5127 21.0228 44.6208 20.8831 44.7881 20.7865C44.9489 20.6937 45.1175 20.6736 45.2937 20.7262C45.4663 20.7725 45.6008 20.8792 45.6974 21.0465L45.9036 21.4036C46.5062 21.1844 47.0717 21.1238 47.6002 21.2219C47.8722 21.2621 48.064 21.3788 48.1754 21.5718C48.2609 21.7198 48.2823 21.8833 48.2398 22.0622C48.1936 22.2348 48.0965 22.3638 47.9485 22.4492C47.852 22.5049 47.7484 22.5261 47.6378 22.5128C47.3519 22.4634 46.9985 22.4829 46.5778 22.5714L47.6086 24.3569C48.3182 24.1445 48.8981 24.1014 49.3484 24.2275C49.7949 24.3471 50.1779 24.6836 50.4974 25.237ZM45.0198 24.3974C45.1424 24.6098 45.3102 24.7445 45.5234 24.8016C45.7328 24.8523 45.9917 24.84 46.3001 24.765L45.3751 23.1629C45.141 23.3666 44.9954 23.5751 44.9383 23.7882C44.8812 24.0013 44.9084 24.2044 45.0198 24.3974ZM49.1633 27.0496C49.3053 26.8646 49.3989 26.6776 49.4441 26.4885C49.4857 26.2929 49.4637 26.1212 49.3783 25.9732C49.2742 25.793 49.1336 25.6683 48.9564 25.5991C48.7754 25.5234 48.5528 25.5018 48.2884 25.5343L49.1633 27.0496Z" fill="#404040"/>
</svg>
